<svg width="32" height="32" viewBox="0 0 32 32" fill="none" xmlns="http://www.w3.org/2000/svg">
<rect width="32" height="32" rx="6" fill="url(#gradient)"/>
<!-- Running person silhouette -->
<g fill="white">
  <!-- Head -->
  <circle cx="19" cy="7" r="2.5"/>
  <!-- Body -->
  <path d="M17 10c0.5-0.5 1.5-0.5 2 0l1 1.5c0.5 0.8 0.3 1.8-0.5 2.3l-1 0.7v3l2.5 1.5c0.8 0.5 1 1.5 0.5 2.3-0.5 0.8-1.5 1-2.3 0.5L17 20v4c0 0.6-0.4 1-1 1s-1-0.4-1-1v-4.5c0-0.3 0.1-0.6 0.4-0.8l1.6-1.2v-2.5l-1.5-1c-0.5-0.3-0.7-0.9-0.5-1.4l1-2z"/>
  <!-- Front leg -->
  <path d="M15 18l-2 3c-0.3 0.5-0.9 0.7-1.4 0.4-0.5-0.3-0.7-0.9-0.4-1.4l1.8-2.8c0.3-0.4 0.7-0.7 1.2-0.7 0.3 0 0.6 0.1 0.8 0.3v1.2z"/>
  <!-- Back leg -->
  <path d="M18 20l1.5 4c0.2 0.5 0 1.1-0.5 1.3-0.5 0.2-1.1 0-1.3-0.5L16 21c-0.1-0.3-0.1-0.6 0.1-0.8 0.2-0.3 0.5-0.4 0.8-0.4 0.4 0 0.8 0.1 1.1 0.2z"/>
  <!-- Arms -->
  <path d="M16.5 12l-1.5 2c-0.3 0.4-0.8 0.5-1.2 0.2-0.4-0.3-0.5-0.8-0.2-1.2l1.2-1.5c0.2-0.3 0.5-0.4 0.8-0.4 0.3 0 0.6 0.1 0.9 0.2v0.7z"/>
  <path d="M18 13l1 1.5c0.3 0.4 0.2 1-0.2 1.3-0.4 0.3-1 0.2-1.3-0.2l-0.8-1.2c-0.2-0.3-0.2-0.7 0-1 0.2-0.3 0.5-0.4 0.8-0.4 0.2 0 0.4 0 0.5 0z"/>
</g>
<defs>
<linearGradient id="gradient" x1="0" y1="0" x2="32" y2="32" gradientUnits="userSpaceOnUse">
<stop stop-color="#3B82F6"/>
<stop offset="1" stop-color="#6366F1"/>
</linearGradient>
</defs>
</svg>