<svg width="32" height="32" viewBox="0 0 32 32" fill="none" xmlns="http://www.w3.org/2000/svg">
<rect width="32" height="32" rx="6" fill="url(#gradient)"/>
<path d="M18 7.5c1.1 0 2-.9 2-2s-.9-2-2-2-2 .9-2 2 .9 2 2 2zM13.89 25.38l1-4.4 2.1 2v6h2v-7.5l-2.1-2 .6-3c1.3 1.5 3.3 2.5 5.5 2.5v-2c-1.9 0-3.5-1-4.3-2.4l-1-1.6c-.4-.6-1-1-1.7-1-.3 0-.5.1-.8.1L12 11.5c-.7-.3-1.6-.1-2.1.5s-.4 1.5.1 2.1l2.9 3.3-.8 3.7-2.1-2V14h-2v4.2l2.7 2.7c.3.3.7.5 1.1.5.1 0 .2 0 .2-.1z" fill="white"/>
<defs>
<linearGradient id="gradient" x1="0" y1="0" x2="32" y2="32" gradientUnits="userSpaceOnUse">
<stop stop-color="#3B82F6"/>
<stop offset="1" stop-color="#6366F1"/>
</linearGradient>
</defs>
</svg>